<?xml version="1.0" encoding="UTF-8" standalone="no"?>
<svg
   xmlns:dc="http://purl.org/dc/elements/1.1/"
   xmlns:cc="http://creativecommons.org/ns#"
   xmlns:rdf="http://www.w3.org/1999/02/22-rdf-syntax-ns#"
   xmlns:svg="http://www.w3.org/2000/svg"
   xmlns="http://www.w3.org/2000/svg"
   xmlns:sodipodi="http://sodipodi.sourceforge.net/DTD/sodipodi-0.dtd"
   xmlns:inkscape="http://www.inkscape.org/namespaces/inkscape"
   width="385"
   height="240"
   viewBox="0 0 101.86459 63.5"
   version="1.1"
   id="svg8"
   inkscape:version="1.0.1 (3bc2e813f5, 2020-09-07)"
   sodipodi:docname="不公开black.svg"
   inkscape:export-filename="C:\w[]\图\草\立场隐匿or观望.png"
   inkscape:export-xdpi="96"
   inkscape:export-ydpi="96">
  <defs
     id="defs2">
    <path
       id="s-Path_1-1a59a"
       d="m 303.64062,260.73437 c -3.90625,0 -6.11979,2.08335 -6.64062,6.25 v 112.5 c 1.04167,3.64584 3.25521,5.46875 6.64062,5.46875 H 326.6875 V 398.625 c 0,4.42708 2.21354,6.64062 6.64062,6.64062 2.60417,0 4.55729,-1.04166 5.85938,-3.125 l 17.1875,-17.1875 h 87.89062 c 3.38541,0 5.59896,-1.82291 6.64063,-5.46875 v -112.5 c -0.52084,-4.16665 -2.73438,-6.25 -6.64063,-6.25 z" />
    <path
       id="s-Path_2-1a59a"
       d="m 373.08305,292.56354 c 5.20252,0 9.57736,1.77358 13.12454,5.32076 l -32.04279,40.31952 c -1.57653,-4.49308 -2.36479,-9.6956 -2.36479,-15.60755 0,-9.38031 1.93124,-16.75054 5.79372,-22.11071 3.78365,-5.28135 8.94675,-7.92202 15.48932,-7.92202 z m 19.27297,16.08051 c 1.26122,3.86248 1.89183,8.51322 1.89183,13.95222 0,9.30147 -1.93124,16.75053 -5.79372,22.34718 -3.78365,5.51782 -8.90734,8.27674 -15.37108,8.27674 0,0 0,0 0,0 0,0 0,0 0,0 -4.72957,0 -8.86793,-1.57652 -12.4151,-4.72957 z M 405.24408,274 l -8.74969,10.99624 c -6.54257,-4.96605 -14.34635,-7.44907 -23.41134,-7.44907 -11.82391,0 -21.24362,3.94131 -28.25914,11.82391 -7.252,8.11909 -10.878,19.19415 -10.878,33.22519 0,12.13921 2.79833,22.26836 8.39498,30.38744 L 333,364.80762 l 9.22265,6.9761 8.27673,-10.40504 c 6.38491,4.65074 13.9128,6.97611 22.58367,6.97611 11.66625,0 21.04656,-4.09895 28.1409,-12.29686 7.252,-8.27674 10.87799,-19.43063 10.878,-33.46166 -10e-6,-11.74509 -2.56185,-21.40128 -7.68554,-28.96858 l 9.93208,-12.53335 z" />
    <path
       id="s-Path_3-1a59a"
       d="m 694.85937,374.6875 c -2.60416,0 -3.90625,1.30209 -3.90625,3.90625 v 40.23437 l -34.76562,-20.3125 c -0.83705,-0.46502 -1.60767,-0.69754 -2.31186,-0.69754 -1.26754,0 -2.31984,0.75335 -3.15689,2.26004 v 0.39063 l -11.32813,19.14062 c -1.30208,2.08335 -0.78124,3.77605 1.5625,5.07813 v 0.39062 L 676.10937,445 l -34.375,19.53125 c -0.26041,0 -0.39062,0.0651 -0.39062,0.19531 0,0.13021 -0.1302,0.19531 -0.3906,0.19531 -1e-5,0 -2e-5,0 -3e-5,0 -2.34374,1.30209 -2.86458,3.125 -1.5625,5.46875 l 11.71875,19.92188 c 0.89286,1.19048 1.82824,1.78572 2.80613,1.78572 0.73342,0 1.49075,-0.33483 2.272,-1.00447 l 34.76562,-19.92188 v 39.0625 1.17188 c 0,2.60417 1.30209,3.90625 3.90625,3.90625 h 22.65625 c 2.34375,-0.52083 3.51563,-1.82292 3.51563,-3.90625 v -40.23438 l 33.98437,19.53125 c 0.26042,0.26042 0.52083,0.39063 0.78125,0.39063 0.90145,0.5008 1.72584,0.7512 2.4732,0.7512 1.19575,0 2.19427,-0.64102 2.99555,-1.92308 l 10.9375,-19.14062 h 0.39063 V 470 c 0.78125,-1.82291 0.26041,-3.38541 -1.5625,-4.6875 v -0.39063 L 736.26562,445 771.03125,425.07812 c 2.34375,-1.30207 2.86458,-3.125 1.5625,-5.46875 l -0.39063,-0.39062 -10.9375,-19.14063 c -0.80128,-1.28205 -1.75049,-1.92307 -2.84764,-1.92307 -0.6857,0 -1.4292,0.2504 -2.23048,0.7512 l -35.15625,19.92187 v -40.23437 c 0,-2.60416 -1.30209,-3.90625 -3.90625,-3.90625 z" />
  </defs>
  <sodipodi:namedview
     id="base"
     pagecolor="#ffffff"
     bordercolor="#666666"
     borderopacity="1.0"
     inkscape:pageopacity="0.0"
     inkscape:pageshadow="2"
     inkscape:zoom="1.0886498"
     inkscape:cx="115.81724"
     inkscape:cy="128.70855"
     inkscape:document-units="mm"
     inkscape:current-layer="layer1"
     inkscape:document-rotation="0"
     showgrid="false"
     units="px"
     inkscape:window-width="1920"
     inkscape:window-height="996"
     inkscape:window-x="-8"
     inkscape:window-y="1052"
     inkscape:window-maximized="1" />
  <metadata
     id="metadata5">
    <rdf:RDF>
      <cc:Work
         rdf:about="">
        <dc:format>image/svg+xml</dc:format>
        <dc:type
           rdf:resource="http://purl.org/dc/dcmitype/StillImage" />
        <dc:title></dc:title>
      </cc:Work>
    </rdf:RDF>
  </metadata>
  <g
     inkscape:label="图层 1"
     inkscape:groupmode="layer"
     id="layer1">
    <g
       fill="#ffffff"
       transform="matrix(0.01435216,0,0,0.01435216,51.935937,22.355393)"
       id="g14" />
    <rect
       style="opacity:0.995;fill:#000000;fill-opacity:1;stroke:none;stroke-width:9.35557;stroke-linecap:round;stroke-linejoin:round;stroke-miterlimit:4;stroke-dasharray:37.4223, 18.71109999999999829, 9.35557000000000016, 18.71109999999999829;stroke-dashoffset:50.5199;paint-order:stroke markers fill"
       id="rect909"
       width="89.67926"
       height="13.246481"
       x="8.2719622"
       y="45.726467"
       ry="2.7887342"
       rx="2.1522982" />
    <g
       aria-label="立 场 隐 匿 / 观 望"
       id="text860"
       style="font-style:normal;font-variant:normal;font-weight:300;font-stretch:normal;font-size:10.5833px;line-height:1.25;font-family:'Source Han Sans';-inkscape-font-specification:'Source Han Sans, Light';font-variant-ligatures:normal;font-variant-caps:normal;font-variant-numeric:normal;font-variant-east-asian:normal;fill:#ffffff;fill-opacity:1;stroke:none;stroke-width:0.264583">
      <path
         d="m 17.975559,49.146497 c -0.105833,-0.444498 -0.338665,-1.142996 -0.550331,-1.682744 l -0.476249,0.137583 c 0.211666,0.539748 0.423332,1.248829 0.518582,1.703911 z m 3.841738,0.380999 h -8.456056 v 0.507999 h 8.456056 z m -5.302233,5.873731 c -0.1905,-1.259412 -0.656165,-3.164406 -1.100663,-4.635485 l -0.497415,0.105833 c 0.423332,1.460496 0.89958,3.386656 1.079496,4.646069 z m 2.063743,0.698498 c 0.592665,-1.396995 1.28058,-3.619488 1.746245,-5.249316 l -0.582082,-0.09525 c -0.370415,1.576912 -1.09008,3.947571 -1.703911,5.344566 h -5.111734 v 0.497415 h 9.302721 v -0.497415 z"
         style="font-style:normal;font-variant:normal;font-weight:300;font-stretch:normal;font-size:10.5833px;font-family:'Source Han Sans';-inkscape-font-specification:'Source Han Sans, Light';font-variant-ligatures:normal;font-variant-caps:normal;font-variant-numeric:normal;font-variant-east-asian:normal;fill:#ffffff;fill-opacity:1;stroke-width:0.264583"
         id="path903" />
      <path
         d="m 27.680406,54.332314 v -3.746488 h 1.238246 v -0.486832 h -1.238246 v -2.508242 h -0.486831 v 2.508242 h -1.375829 v 0.486832 h 1.375829 v 3.936988 c -0.582082,0.211666 -1.100664,0.402165 -1.523996,0.539748 l 0.169333,0.518582 c 0.888997,-0.349249 2.063744,-0.814914 3.164407,-1.24883 l -0.08467,-0.465665 z m 2.772825,-3.376072 c 1.12183,-0.687915 2.275409,-1.619245 3.545405,-2.719908 l -0.412748,-0.296333 -0.105833,0.05292 h -4.29682 v 0.497415 h 3.746488 c -1.02658,0.96308 -2.24366,1.820327 -2.624658,2.05316 -0.412749,0.275166 -0.793748,0.497415 -1.037164,0.518582 0.08467,0.137583 0.1905,0.370415 0.232833,0.497415 0.08467,-0.07408 0.370415,-0.116417 0.89958,-0.116417 h 1.142997 c -0.476249,1.259413 -1.333496,2.285993 -2.381243,2.963324 0.127,0.07408 0.328083,0.232833 0.391582,0.317499 1.05833,-0.761997 1.979077,-1.883827 2.487076,-3.280823 h 1.05833 c -0.740831,2.391826 -2.02141,4.222737 -3.958154,5.333983 0.126999,0.08467 0.328082,0.232833 0.402165,0.328083 1.926161,-1.227663 3.259656,-3.100907 4.042821,-5.662066 h 0.920747 c -0.22225,3.344323 -0.444499,4.614319 -0.751415,4.931818 -0.09525,0.127 -0.190499,0.148166 -0.359832,0.137583 -0.179916,0 -0.592665,0 -1.047746,-0.04233 0.08467,0.137583 0.137582,0.338665 0.148166,0.486832 0.412748,0.03175 0.825497,0.03175 1.068913,0.02117 0.264582,-0.01058 0.455082,-0.08467 0.634998,-0.285749 0.370415,-0.433915 0.582081,-1.682745 0.814914,-5.439816 0.01058,-0.08467 0.02117,-0.296332 0.02117,-0.296332 z"
         style="font-style:normal;font-variant:normal;font-weight:300;font-stretch:normal;font-size:10.5833px;font-family:'Source Han Sans';-inkscape-font-specification:'Source Han Sans, Light';font-variant-ligatures:normal;font-variant-caps:normal;font-variant-numeric:normal;font-variant-east-asian:normal;fill:#ffffff;fill-opacity:1;stroke-width:0.264583"
         id="path905" />
      <path
         d="m 45.947143,48.807832 c -0.275166,0.423332 -0.645581,0.89958 -0.952497,1.238246 h -2.402409 c 0.433915,-0.391582 0.814914,-0.814914 1.142996,-1.238246 z m -3.428989,1.672161 h 4.571985 v 1.068913 h -4.317986 v 0.423332 h 4.317986 v 1.142997 h -4.646068 v 0.444498 h 5.122317 v -3.513655 h -2.010827 c 0.380999,-0.423332 0.814914,-0.984247 1.12183,-1.471079 l -0.328083,-0.222249 -0.08467,0.02117 h -2.222493 c 0.15875,-0.243416 0.306916,-0.465666 0.433915,-0.687915 l -0.497415,-0.08467 c -0.391582,0.730247 -1.068913,1.672161 -2.000243,2.370659 0.105833,0.05292 0.253999,0.190499 0.349248,0.285749 0.0635,-0.04233 0.127,-0.09525 0.1905,-0.148166 z m 3.376072,4.571986 C 45.502644,54.67098 44.730064,54.099482 44.105649,53.7079 l -0.317499,0.285749 c 0.634998,0.402165 1.396995,1.005413 1.788577,1.396995 z m -4.296819,-7.133144 -0.08467,0.02117 h -2.444742 v 9.143971 h 0.476249 V 48.41625 h 1.746244 c -0.253999,0.740831 -0.624415,1.682744 -0.99483,2.529408 0.846664,0.888998 1.079497,1.640412 1.079497,2.264826 0,0.328083 -0.0635,0.656165 -0.243416,0.783165 -0.09525,0.0635 -0.211666,0.09525 -0.349249,0.105833 -0.201083,0.01058 -0.433916,0 -0.719665,-0.01058 0.09525,0.137583 0.148167,0.328083 0.15875,0.455082 0.232832,0.02117 0.497415,0.02117 0.730248,0 0.190499,-0.02117 0.380998,-0.08467 0.518581,-0.179916 0.264583,-0.179916 0.380999,-0.624415 0.380999,-1.12183 0,-0.687914 -0.211666,-1.460495 -1.047747,-2.360075 0.370416,-0.857248 0.804331,-1.904994 1.12183,-2.751658 z m 0.285749,8.868805 c 0.370415,-0.560915 0.677331,-1.460496 0.86783,-2.063744 l -0.412748,-0.190499 c -0.169333,0.613831 -0.497415,1.471079 -0.857247,1.979077 z m 2.349492,-0.232833 c -0.465665,0 -0.539748,-0.04233 -0.539748,-0.253999 v -1.767411 h -0.476248 v 1.756828 c 0,0.592664 0.211666,0.719664 0.984247,0.719664 h 1.725077 c 0.645582,0 0.804331,-0.232833 0.867831,-1.312329 -0.148166,-0.04233 -0.338666,-0.105833 -0.444499,-0.1905 -0.03175,0.931331 -0.09525,1.047747 -0.465665,1.047747 z m 2.27541,-1.98966 c 0.529165,0.645581 1.068913,1.513412 1.280579,2.11666 l 0.423332,-0.201083 c -0.211666,-0.603248 -0.751414,-1.460495 -1.301746,-2.095493 z"
         style="font-style:normal;font-variant:normal;font-weight:300;font-stretch:normal;font-size:10.5833px;font-family:'Source Han Sans';-inkscape-font-specification:'Source Han Sans, Light';font-variant-ligatures:normal;font-variant-caps:normal;font-variant-numeric:normal;font-variant-east-asian:normal;fill:#ffffff;fill-opacity:1;stroke-width:0.264583"
         id="path907" />
      <path
         d="m 52.688665,56.269058 v -7.651726 h 8.170308 V 48.119917 H 52.19125 v 8.646556 h 8.889972 v -0.497415 z m 2.910408,-2.741075 h 3.354906 v 1.523996 h -3.354906 z m 4.910651,-1.439328 v -0.444499 h -4.095737 c 0.126999,-0.264582 0.243416,-0.550331 0.349249,-0.836081 l -0.476249,-0.116416 c -0.116416,0.328082 -0.253999,0.656165 -0.402165,0.952497 h -2.518826 v 0.444499 h 2.264827 c -0.603248,0.984247 -1.428746,1.767411 -2.402409,2.317742 0.126999,0.08467 0.306915,0.264583 0.380998,0.359833 0.550332,-0.349249 1.05833,-0.761998 1.513412,-1.24883 v 1.957911 h 4.32857 v -2.37066 h -3.968738 c 0.264583,-0.317499 0.486832,-0.645581 0.698498,-1.015996 z m -5.217567,-3.11149 v 0.783164 h -1.777994 v 0.444498 h 1.777994 v 0.730248 h 0.476248 v -0.730248 h 2.190744 v 0.730248 h 0.476248 v -0.730248 h 1.830911 v -0.444498 h -1.830911 v -0.783164 h -0.476248 v 0.783164 h -2.190744 v -0.783164 z"
         style="font-style:normal;font-variant:normal;font-weight:300;font-stretch:normal;font-size:10.5833px;font-family:'Source Han Sans';-inkscape-font-specification:'Source Han Sans, Light';font-variant-ligatures:normal;font-variant-caps:normal;font-variant-numeric:normal;font-variant-east-asian:normal;fill:#ffffff;fill-opacity:1;stroke-width:0.264583"
         id="path909" />
      <path
         d="m 64.118591,58.174052 h 0.497415 l 3.492489,-10.191718 h -0.507998 z"
         style="font-style:normal;font-variant:normal;font-weight:300;font-stretch:normal;font-size:10.5833px;font-family:'Source Han Sans';-inkscape-font-specification:'Source Han Sans, Light';font-variant-ligatures:normal;font-variant-caps:normal;font-variant-numeric:normal;font-variant-east-asian:normal;fill:#ffffff;fill-opacity:1;stroke-width:0.264583"
         id="path911" />
      <path
         d="m 75.982441,48.490333 h 3.397239 v 5.1329 h 0.497415 v -5.598565 h -4.381486 v 5.598565 h 0.486832 z m -1.301746,6.815645 c -0.211666,-0.624415 -0.571498,-1.396996 -1.02658,-2.222493 0.529165,-1.301746 0.920747,-2.868074 1.132413,-4.677819 l -0.328082,-0.105833 -0.09525,0.03175 H 71.13529 v 0.486832 h 3.100906 c -0.179916,1.365246 -0.507998,2.614075 -0.910163,3.704155 -0.518582,-0.888997 -1.111247,-1.788578 -1.703912,-2.561159 l -0.412748,0.232833 c 0.666748,0.888997 1.333495,1.926161 1.883827,2.931574 -0.571498,1.344079 -1.301746,2.402409 -2.063743,3.069157 0.116416,0.09525 0.296332,0.275166 0.380998,0.391582 0.740831,-0.698498 1.418163,-1.661578 1.979077,-2.899824 0.359833,0.709081 0.656165,1.375829 0.825498,1.915577 z m 2.656408,-3.524239 c 0,1.640411 -0.349249,3.566572 -2.995074,4.900068 0.116417,0.08467 0.275166,0.285749 0.328083,0.391582 2.709324,-1.386412 3.153823,-3.524239 3.153823,-5.281067 v -2.243659 h -0.486832 z m 1.396996,4.667235 c -0.317499,0 -0.412749,-0.0635 -0.412749,-0.370415 v -2.688158 h -0.476248 v 2.730491 c 0,0.582081 0.243415,0.740831 0.857247,0.740831 h 1.02658 c 0.814914,0 0.89958,-0.380999 0.984247,-2.05316 -0.137583,-0.04233 -0.306916,-0.105833 -0.444499,-0.211666 -0.0635,1.576911 -0.116416,1.852077 -0.529165,1.852077 z"
         style="font-style:normal;font-variant:normal;font-weight:300;font-stretch:normal;font-size:10.5833px;font-family:'Source Han Sans';-inkscape-font-specification:'Source Han Sans, Light';font-variant-ligatures:normal;font-variant-caps:normal;font-variant-numeric:normal;font-variant-east-asian:normal;fill:#ffffff;fill-opacity:1;stroke-width:0.264583"
         id="path913" />
      <path
         d="m 92.524101,48.299833 v 0.963081 h -2.709325 c 0.01058,-0.306916 0.01058,-0.613832 0.01058,-0.963081 z m -2.804575,2.402409 c 0.04233,-0.296332 0.0635,-0.645581 0.08467,-1.02658 h 2.719908 v 1.02658 z m 2.804575,0.412749 v 1.015997 c 0,0.126999 -0.04233,0.169333 -0.1905,0.179916 -0.137583,0.01058 -0.645581,0.01058 -1.238246,0 0.07408,0.127 0.137583,0.317499 0.169333,0.433915 0.740831,0.01058 1.185329,0.01058 1.428745,-0.07408 0.243416,-0.08467 0.317499,-0.222249 0.317499,-0.539748 v -4.254487 h -3.672405 c 0,2.973908 -0.03175,3.936988 -1.248829,4.582569 0.116416,0.07408 0.253999,0.264583 0.306916,0.380999 0.719664,-0.391582 1.068913,-0.878414 1.248829,-1.725078 z m -7.37656,0.116416 c 0,0.402166 -0.264583,0.550332 -0.412749,0.624415 0.08467,0.105833 0.179916,0.306916 0.222249,0.433915 0.1905,-0.126999 0.507999,-0.232832 3.428989,-0.941913 -0.01058,-0.105833 -0.02117,-0.296333 -0.01058,-0.433916 l -2.741075,0.624415 v -2.412992 h 3.164407 v -0.465665 h -1.841494 c -0.137583,-0.328083 -0.391582,-0.783165 -0.634998,-1.132413 l -0.433915,0.148166 c 0.179916,0.306915 0.380998,0.677331 0.518581,0.984247 h -2.381242 v 0.465665 h 1.12183 z m 3.862904,5.101151 v -1.174746 h 3.23849 v -0.444499 h -3.23849 V 53.61265 h 3.746488 v -0.455082 h -7.905725 v 0.455082 h 3.651239 v 1.100663 h -3.185573 v 0.444499 h 3.185573 v 1.174746 h -4.402653 v 0.455082 h 9.33447 v -0.455082 z"
         style="font-style:normal;font-variant:normal;font-weight:300;font-stretch:normal;font-size:10.5833px;font-family:'Source Han Sans';-inkscape-font-specification:'Source Han Sans, Light';font-variant-ligatures:normal;font-variant-caps:normal;font-variant-numeric:normal;font-variant-east-asian:normal;fill:#ffffff;fill-opacity:1;stroke-width:0.264583"
         id="path915" />
    </g>
    <rect
       style="opacity:0.995;fill:#000000;fill-opacity:1;stroke:none;stroke-width:11.8022;stroke-linecap:round;stroke-linejoin:round;stroke-miterlimit:4;stroke-dasharray:47.2092, 23.60450000000000159, 11.80219999999999914, 23.60450000000000159;stroke-dashoffset:63.7321;paint-order:stroke markers fill"
       id="rect911"
       width="5.257"
       height="55.004196"
       x="0"
       y="3.96875"
       rx="0"
       ry="0" />
    <g
       id="g9"
       transform="matrix(0.19999516,0,0,0.19999516,-88.845311,-66.891875)"
       style="stroke:#000000;stroke-opacity:1;stroke-width:6.61474341;stroke-miterlimit:4;stroke-dasharray:13.22948682, 13.22948681999999998;stroke-dashoffset:6.61474341;stroke-linejoin:round;stroke-linecap:round">
      <defs
         id="defs3">
        <path
           id="path869"
           d="m 694.85937,374.6875 c -2.60416,0 -3.90625,1.30209 -3.90625,3.90625 v 40.23437 l -34.76562,-20.3125 c -0.83705,-0.46502 -1.60767,-0.69754 -2.31186,-0.69754 -1.26754,0 -2.31984,0.75335 -3.15689,2.26004 v 0.39063 l -11.32813,19.14062 c -1.30208,2.08335 -0.78124,3.77605 1.5625,5.07813 v 0.39062 L 676.10937,445 l -34.375,19.53125 c -0.26041,0 -0.39062,0.0651 -0.39062,0.19531 0,0.13021 -0.1302,0.19531 -0.3906,0.19531 -1e-5,0 -2e-5,0 -3e-5,0 -2.34374,1.30209 -2.86458,3.125 -1.5625,5.46875 l 11.71875,19.92188 c 0.89286,1.19048 1.82824,1.78572 2.80613,1.78572 0.73342,0 1.49075,-0.33483 2.272,-1.00447 l 34.76562,-19.92188 v 39.0625 1.17188 c 0,2.60417 1.30209,3.90625 3.90625,3.90625 h 22.65625 c 2.34375,-0.52083 3.51563,-1.82292 3.51563,-3.90625 v -40.23438 l 33.98437,19.53125 c 0.26042,0.26042 0.52083,0.39063 0.78125,0.39063 0.90145,0.5008 1.72584,0.7512 2.4732,0.7512 1.19575,0 2.19427,-0.64102 2.99555,-1.92308 l 10.9375,-19.14062 h 0.39063 V 470 c 0.78125,-1.82291 0.26041,-3.38541 -1.5625,-4.6875 v -0.39063 L 736.26562,445 771.03125,425.07812 c 2.34375,-1.30207 2.86458,-3.125 1.5625,-5.46875 l -0.39063,-0.39062 -10.9375,-19.14063 c -0.80128,-1.28205 -1.75049,-1.92307 -2.84764,-1.92307 -0.6857,0 -1.4292,0.2504 -2.23048,0.7512 l -35.15625,19.92187 v -40.23437 c 0,-2.60416 -1.30209,-3.90625 -3.90625,-3.90625 z" />
      </defs>
      <g
         aria-label="/.*/"
         id="text877"
         style="font-style:normal;font-variant:normal;font-weight:bold;font-stretch:semi-condensed;font-size:211.672px;line-height:1.25;font-family:'Nowar Warcraft Rounded CN';-inkscape-font-specification:'Nowar Warcraft Rounded CN, Bold Semi-Condensed';font-variant-ligatures:normal;font-variant-caps:normal;font-variant-numeric:normal;font-variant-east-asian:normal;fill:none;fill-opacity:1;stroke:#000000;stroke-width:6.61474;stroke-linecap:round;stroke-linejoin:round;stroke-miterlimit:4;stroke-dasharray:13.2295, 13.22949999999999982;stroke-dashoffset:6.61474;stroke-opacity:1">
        <path
           d="m 609.75705,381.14091 q 11.85364,4.44511 4.23344,25.18896 L 572.71445,517.246 q -7.83186,20.74386 -19.68549,16.29874 -11.85363,-4.44511 -4.23344,-25.18896 l 41.27604,-110.91613 q 7.83186,-20.74385 19.68549,-16.29874 z"
           style="font-style:normal;font-variant:normal;font-weight:bold;font-stretch:semi-condensed;font-size:211.672px;font-family:'Nowar Warcraft Rounded CN';-inkscape-font-specification:'Nowar Warcraft Rounded CN, Bold Semi-Condensed';font-variant-ligatures:normal;font-variant-caps:normal;font-variant-numeric:normal;font-variant-east-asian:normal;fill:none;fill-opacity:1;stroke:#000000;stroke-width:6.61474;stroke-linecap:round;stroke-linejoin:round;stroke-miterlimit:4;stroke-dasharray:13.2295, 13.22949999999999982;stroke-dashoffset:6.61474;stroke-opacity:1"
           id="path918" />
        <path
           d="m 636.21602,517.88102 q 0,-9.1019 4.86845,-13.12367 4.86846,-4.23344 12.48865,-4.23344 7.62019,0 12.48865,4.23344 5.08013,4.02177 5.08013,13.12367 0,9.10189 -5.08013,13.33533 -5.08013,4.23344 -12.48865,4.23344 -7.40852,0 -12.48865,-4.23344 -4.86845,-4.23344 -4.86845,-13.33533 z"
           style="font-style:normal;font-variant:normal;font-weight:bold;font-stretch:semi-condensed;font-size:211.672px;font-family:'Nowar Warcraft Rounded CN';-inkscape-font-specification:'Nowar Warcraft Rounded CN, Bold Semi-Condensed';font-variant-ligatures:normal;font-variant-caps:normal;font-variant-numeric:normal;font-variant-east-asian:normal;fill:none;fill-opacity:1;stroke:#000000;stroke-width:6.61474;stroke-linecap:round;stroke-linejoin:round;stroke-miterlimit:4;stroke-dasharray:13.2295, 13.22949999999999982;stroke-dashoffset:6.61474;stroke-opacity:1"
           id="path920" />
        <path
           d="m 736.33651,373.30904 q 13.12366,0 10.5836,22.86058 l -1.05836,9.73691 q -0.21167,1.05836 0.84669,0.84669 l 9.73691,-2.96341 q 22.01389,-6.7735 24.34228,5.71514 2.54006,12.48865 -20.53218,14.60537 l -7.40852,0.63502 q -1.05836,0 -0.42335,0.84669 l 6.13849,7.62019 q 14.18202,17.99212 3.38675,24.97729 -10.79527,6.98518 -21.37887,-13.33533 l -4.23344,-8.46688 q -0.42334,-0.84669 -0.84669,0.21167 l -3.59842,7.40852 q -9.73691,20.95553 -20.95553,13.97035 -11.00694,-6.7735 3.17508,-24.97729 l 5.92682,-7.40852 q 0.63501,-0.84669 -0.42335,-0.84669 l -7.19685,-0.63502 q -22.86057,-2.11672 -20.53218,-14.60537 2.54006,-12.48864 24.34228,-5.71514 l 9.73691,2.96341 q 1.05836,0.21167 0.84669,-0.84669 l -1.05836,-9.73691 q -2.54006,-22.86058 10.5836,-22.86058 z"
           style="font-style:normal;font-variant:normal;font-weight:bold;font-stretch:semi-condensed;font-size:211.672px;font-family:'Nowar Warcraft Rounded CN';-inkscape-font-specification:'Nowar Warcraft Rounded CN, Bold Semi-Condensed';font-variant-ligatures:normal;font-variant-caps:normal;font-variant-numeric:normal;font-variant-east-asian:normal;fill:none;fill-opacity:1;stroke:#000000;stroke-width:6.61474;stroke-linecap:round;stroke-linejoin:round;stroke-miterlimit:4;stroke-dasharray:13.2295, 13.22949999999999982;stroke-dashoffset:6.61474;stroke-opacity:1"
           id="path922" />
        <path
           d="m 862.06955,381.14091 q 11.85364,4.44511 4.23344,25.18896 L 825.02695,517.246 q -7.83186,20.74386 -19.68549,16.29874 -11.85363,-4.44511 -4.23344,-25.18896 l 41.27604,-110.91613 q 7.83186,-20.74385 19.68549,-16.29874 z"
           style="font-style:normal;font-variant:normal;font-weight:bold;font-stretch:semi-condensed;font-size:211.672px;font-family:'Nowar Warcraft Rounded CN';-inkscape-font-specification:'Nowar Warcraft Rounded CN, Bold Semi-Condensed';font-variant-ligatures:normal;font-variant-caps:normal;font-variant-numeric:normal;font-variant-east-asian:normal;fill:none;fill-opacity:1;stroke:#000000;stroke-width:6.61474;stroke-linecap:round;stroke-linejoin:round;stroke-miterlimit:4;stroke-dasharray:13.2295, 13.22949999999999982;stroke-dashoffset:6.61474;stroke-opacity:1"
           id="path924" />
      </g>
    </g>
  </g>
</svg>
